<svg width="1200" height="600" viewBox="0 0 1200 600" fill="none" xmlns="http://www.w3.org/2000/svg" role="img" aria-label="Machine learning anemia detection (light)">
  <defs>
    <linearGradient id="bg" x1="0" y1="0" x2="1" y2="1">
      <stop offset="0" stop-color="#FFFFFF" />
      <stop offset="0.6" stop-color="#FFF8E7" />
      <stop offset="1" stop-color="#FFFFFF" />
    </linearGradient>
    <linearGradient id="accent" x1="0" y1="0" x2="1" y2="0">
      <stop offset="0" stop-color="#F59E0B" />
      <stop offset="1" stop-color="#D97706" />
    </linearGradient>
    <filter id="soft" x="-20%" y="-20%" width="140%" height="140%">
      <feGaussianBlur stdDeviation="14" result="b" />
      <feBlend in="SourceGraphic" in2="b" mode="multiply" />
    </filter>
  </defs>

  <rect width="1200" height="600" rx="44" fill="url(#bg)" />

  <g opacity="0.95">
    <path
      d="M600 165c-75 0-135 60-135 135c0 53 30 99 74 123c18 10 39 16 61 16c75 0 135-60 135-135c0-75-60-135-135-135Z"
      fill="#0D0D0F"
      fill-opacity="0.04"
    />
    <path
      d="M600 195c-58 0-105 47-105 105c0 42 24 78 58 95c14 8 30 12 47 12c58 0 105-47 105-105c0-58-47-105-105-105Z"
      fill="#0D0D0F"
      fill-opacity="0.04"
    />
  </g>

  <g filter="url(#soft)">
    <path
      d="M600 220c-44 0-80 36-80 80c0 44 36 80 80 80c44 0 80-36 80-80c0-44-36-80-80-80Z"
      fill="#F59E0B"
      fill-opacity="0.13"
    />
    <path
      d="M600 236c-36 0-64 29-64 64c0 36 29 64 64 64c36 0 64-29 64-64c0-36-29-64-64-64Z"
      fill="#FBBF24"
      fill-opacity="0.10"
    />
  </g>

  <g>
    <path d="M600 252v96" stroke="url(#accent)" stroke-width="16" stroke-linecap="round" />
    <path d="M552 300h96" stroke="url(#accent)" stroke-width="16" stroke-linecap="round" />
  </g>

  <g font-family="ui-sans-serif, system-ui, -apple-system, Segoe UI, Roboto, Helvetica, Arial" fill="#0D0D0F">
    <text x="600" y="470" text-anchor="middle" font-size="36" font-weight="800">ML Classifier</text>
    <text x="600" y="505" text-anchor="middle" font-size="18" fill-opacity="0.7">features - prediction - web app</text>
  </g>

  <g opacity="0.95">
    <rect x="135" y="190" width="250" height="44" rx="14" fill="#0D0D0F" fill-opacity="0.03" stroke="#0D0D0F" stroke-opacity="0.08" />
    <rect x="135" y="250" width="310" height="44" rx="14" fill="#0D0D0F" fill-opacity="0.03" stroke="#0D0D0F" stroke-opacity="0.08" />
    <rect x="135" y="310" width="210" height="44" rx="14" fill="#0D0D0F" fill-opacity="0.03" stroke="#0D0D0F" stroke-opacity="0.08" />
    <path d="M420 215h70" stroke="url(#accent)" stroke-width="6" stroke-linecap="round" />
    <path d="M470 272h40" stroke="url(#accent)" stroke-width="6" stroke-linecap="round" />
    <path d="M390 332h100" stroke="url(#accent)" stroke-width="6" stroke-linecap="round" />
  </g>
</svg>
