<svg width="1200" height="600" viewBox="0 0 1200 600" fill="none" xmlns="http://www.w3.org/2000/svg" role="img" aria-label="NBA data analytics pipeline (light)">
  <defs>
    <linearGradient id="bg" x1="0" y1="0" x2="1" y2="1">
      <stop offset="0" stop-color="#FFFFFF" />
      <stop offset="0.6" stop-color="#FFF8E7" />
      <stop offset="1" stop-color="#FFFFFF" />
    </linearGradient>
    <linearGradient id="glow" x1="0" y1="0" x2="1" y2="0">
      <stop offset="0" stop-color="#F59E0B" stop-opacity="0.85" />
      <stop offset="0.5" stop-color="#D97706" stop-opacity="0.85" />
      <stop offset="1" stop-color="#FBBF24" stop-opacity="0.85" />
    </linearGradient>
    <filter id="soft" x="-20%" y="-20%" width="140%" height="140%">
      <feGaussianBlur stdDeviation="16" result="b" />
      <feColorMatrix
        in="b"
        type="matrix"
        values="1 0 0 0 0  0 1 0 0 0  0 0 1 0 0  0 0 0 0.5 0"
        result="c"
      />
      <feBlend in="SourceGraphic" in2="c" mode="multiply" />
    </filter>
  </defs>

  <rect width="1200" height="600" rx="44" fill="url(#bg)" />
  <path
    d="M120 420C270 270 400 285 545 325C690 365 800 350 970 240"
    stroke="url(#glow)"
    stroke-width="10"
    stroke-linecap="round"
    filter="url(#soft)"
  />

  <g fill="none" stroke="#0D0D0F" stroke-opacity="0.12">
    <circle cx="170" cy="400" r="78" />
    <circle cx="520" cy="330" r="78" />
    <circle cx="870" cy="255" r="78" />
  </g>

  <g>
    <circle cx="170" cy="400" r="14" fill="#FBBF24" />
    <circle cx="520" cy="330" r="14" fill="#F59E0B" />
    <circle cx="870" cy="255" r="14" fill="#D97706" />
  </g>

  <g font-family="ui-sans-serif, system-ui, -apple-system, Segoe UI, Roboto, Helvetica, Arial" fill="#0D0D0F">
    <text x="170" y="300" text-anchor="middle" font-size="28" font-weight="800">Ingest</text>
    <text x="170" y="334" text-anchor="middle" font-size="18" fill-opacity="0.7">APIs / raw stats</text>

    <text x="520" y="230" text-anchor="middle" font-size="28" font-weight="800">Orchestrate</text>
    <text x="520" y="264" text-anchor="middle" font-size="18" fill-opacity="0.7">Airflow / transforms</text>

    <text x="870" y="155" text-anchor="middle" font-size="28" font-weight="800">Model</text>
    <text x="870" y="189" text-anchor="middle" font-size="18" fill-opacity="0.7">Postgres / metrics</text>
  </g>

  <g opacity="0.55">
    <path
      d="M1030 410c-34-6-66-30-80-62c-9-20-10-45-2-66c14-37 49-62 89-62c52 0 94 42 94 94c0 40-25 75-60 89c-13 6-28 9-41 7Z"
      fill="#F59E0B"
      fill-opacity="0.09"
    />
    <path
      d="M1110 420c-30 44-104 56-156 24c-52-32-62-103-20-149c32-35 86-44 128-21c48 26 68 85 48 134Z"
      fill="#FBBF24"
      fill-opacity="0.06"
    />
  </g>
</svg>
