<svg xmlns="http://www.w3.org/2000/svg" viewBox="0 0 64 64" role="img" aria-label="Python">
  <path fill="#3776AB" d="M31.7 10c-8.6 0-8 3.7-8 3.7l.01 3.8h8.1v1.2H20.5S10 21.8 10 32.1c0 10.3 9.2 9.9 9.2 9.9h5.5v-7.7s-.3-9.2 9-9.2h15.6s8.8.1 8.8-8.5c0-8.6-7.5-8.3-7.5-8.3H31.7Zm-4.5 2.6a2.3 2.3 0 1 1 0 4.6a2.3 2.3 0 0 1 0-4.6Z"/>
  <path fill="#FFD43B" d="M32.3 54c8.6 0 8-3.7 8-3.7l-.01-3.8h-8.1v-1.2h11.3S54 42.2 54 31.9C54 21.6 44.8 22 44.8 22h-5.5v7.7s.3 9.2-9 9.2H14.7s-8.8-.1-8.8 8.5c0 8.6 7.5 8.3 7.5 8.3h18.9Zm4.5-2.6a2.3 2.3 0 1 1 0-4.6a2.3 2.3 0 0 1 0 4.6Z"/>
</svg>
